<!-- icon666.com - MILLIONS vector ICONS FREE --><svg id="Layer_1" enable-background="new 0 0 512 512" viewBox="0 0 512 512" xmlns="http://www.w3.org/2000/svg"><path d="m456 232h-33.7c-10.6-73.5-68.8-131.7-142.3-142.3v-33.7c0-13.3-10.7-24-24-24s-24 10.7-24 24v33.7c-73.5 10.6-131.7 68.8-142.3 142.3h-33.7c-13.3 0-24 10.7-24 24s10.7 24 24 24h33.7c10.6 73.5 68.8 131.7 142.3 142.3v33.7c0 13.3 10.7 24 24 24s24-10.7 24-24v-33.7c73.5-10.6 131.7-68.8 142.3-142.3h33.7c13.3 0 24-10.7 24-24s-10.7-24-24-24zm-200 144c-66.2 0-120-53.8-120-120s53.8-120 120-120 120 53.8 120 120-53.8 120-120 120z"></path></svg>