<!-- icon666.com - MILLIONS vector ICONS FREE --><svg version="1.1" xmlns="http://www.w3.org/2000/svg" viewBox="0 0 512 512" xmlns:xlink="http://www.w3.org/1999/xlink" enable-background="new 0 0 512 512"><g><g><path d="M443.3,11H68.7C36.9,11,11,36.4,11,67.6v249.8c0,31.2,25.9,56.6,57.7,56.6h196.8l119.7,120.9c6.6,7.6,33.2,12.1,34.9-14.4 V374.1h23.2c31.8,0,57.7-25.4,57.7-56.6V67.6C501,36.4,475.1,11,443.3,11z M460.2,317.5c0,8.7-7.6,15.8-16.8,15.8h-43.6 c-11.3,0-20.4,9.1-20.4,20.4V431l-90.8-91.7c-3.8-3.9-9.1-6.1-14.5-6.1H68.7c-9.3,0-16.9-7.1-16.9-15.8V67.6 c0-8.7,7.6-15.8,16.9-15.8h374.6c9.3,0,16.8,7.1,16.8,15.8V317.5z"></path><path d="m368.1,112.5h-224.2c-11.3,0-20.4,9.1-20.4,20.4 0,11.3 9.1,20.4 20.4,20.4h224.3c11.3,0 20.4-9.1 20.4-20.4-0.1-11.3-9.2-20.4-20.5-20.4z"></path><path d="m368.1,230.5h-224.2c-11.3,0-20.4,9.1-20.4,20.4 0,11.3 9.1,20.4 20.4,20.4h224.3c11.3,0 20.4-9.1 20.4-20.4-0.1-11.3-9.2-20.4-20.5-20.4z"></path></g></g></svg>